<?xml version="1.0" standalone="no"?>
<!DOCTYPE svg PUBLIC "-//W3C//DTD SVG 20010904//EN"
 "http://www.w3.org/TR/2001/REC-SVG-20010904/DTD/svg10.dtd">
<svg version="1.0" xmlns="http://www.w3.org/2000/svg"
 width="700.000000pt" height="700.000000pt" viewBox="0 0 700.000000 700.000000"
 preserveAspectRatio="xMidYMid meet">
<metadata>
Created by potrace 1.14, written by Peter Selinger 2001-2017
</metadata>
<g transform="translate(0.000000,700.000000) scale(0.100000,-0.100000)"
fill="#000000" stroke="none">
<path d="M3278 6996 c-1 -2 -42 -6 -89 -10 -47 -4 -95 -8 -105 -10 -10 -2 -46
-7 -79 -11 -59 -7 -79 -10 -125 -20 -34 -7 -69 -14 -105 -21 -63 -11 -235 -57
-340 -91 -954 -306 -1735 -1010 -2139 -1926 -79 -180 -156 -405 -192 -557 -40
-174 -66 -313 -79 -430 -27 -228 -27 -687 -1 -827 2 -10 7 -43 10 -73 7 -62
12 -94 26 -165 6 -27 12 -59 14 -70 31 -163 115 -434 191 -620 41 -101 162
-344 200 -405 14 -22 25 -42 25 -45 0 -15 207 -311 286 -410 113 -141 387
-415 529 -528 552 -441 1213 -707 1901 -764 114 -9 473 -9 584 0 457 39 884
161 1293 370 247 126 421 240 637 416 116 95 347 320 431 421 30 36 57 67 60
70 3 3 39 50 81 105 402 537 642 1163 695 1815 14 175 7 616 -12 705 -2 11 -7
41 -10 67 -5 40 -27 164 -50 283 -10 51 -55 216 -87 315 -66 206 -177 456
-294 662 -46 80 -197 311 -218 334 -6 7 -20 24 -31 40 -83 117 -338 390 -495
530 -121 107 -376 289 -540 384 -186 108 -448 226 -645 291 -166 55 -419 117
-545 134 -19 3 -46 7 -60 10 -13 2 -52 7 -86 11 -33 3 -74 8 -90 10 -33 5
-540 14 -546 10z m447 -610 c44 -4 91 -8 105 -10 14 -2 48 -7 75 -11 92 -12
120 -16 165 -27 25 -5 56 -12 70 -14 87 -17 290 -79 410 -126 199 -78 540
-267 675 -374 17 -14 35 -28 40 -32 125 -88 363 -322 487 -477 371 -464 590
-1016 634 -1605 12 -153 6 -428 -10 -533 -3 -18 -8 -52 -11 -77 -3 -25 -7 -55
-9 -66 -2 -12 -7 -39 -10 -60 -12 -74 -67 -284 -102 -391 -225 -672 -696
-1243 -1319 -1600 -282 -162 -622 -283 -949 -337 -26 -5 -47 -8 -152 -21 -133
-18 -375 -22 -534 -11 -440 33 -870 166 -1247 387 -78 46 -220 139 -248 161
-5 5 -28 22 -50 39 -460 352 -804 831 -988 1379 -35 104 -81 267 -90 325 -3
17 -12 68 -20 115 -28 159 -40 298 -41 480 0 103 10 291 19 340 2 14 6 45 9
70 27 236 139 604 260 850 103 208 249 436 376 584 365 428 790 720 1308 900
57 20 113 38 125 40 12 3 67 16 122 30 55 13 116 27 135 30 19 3 44 7 55 10
11 2 45 7 75 11 30 4 64 9 75 11 11 2 72 7 135 10 63 4 116 7 117 8 5 4 230
-2 308 -8z"/>
<path d="M4847 4939 c-71 -16 -80 -23 -304 -239 -147 -141 -479 -459 -548
-525 -33 -31 -139 -132 -235 -224 -96 -93 -197 -190 -225 -216 -115 -108 -407
-388 -514 -491 -64 -62 -154 -148 -201 -193 l-85 -81 -35 38 c-19 21 -69 75
-110 121 -41 47 -80 89 -85 95 -6 6 -48 54 -95 106 -46 52 -89 100 -95 106 -5
6 -37 41 -70 78 -97 109 -199 159 -325 158 -237 -1 -414 -197 -397 -438 6 -84
45 -175 103 -239 89 -99 177 -197 250 -279 43 -50 93 -104 109 -122 17 -17 43
-47 59 -65 17 -19 86 -97 155 -174 69 -77 139 -156 156 -175 139 -161 240
-220 380 -224 80 -3 203 43 265 97 25 22 131 148 405 482 77 93 148 179 157
190 24 28 176 213 219 266 53 64 338 410 358 434 39 47 226 273 256 310 18 22
70 86 116 141 46 56 129 157 184 224 55 67 105 127 110 134 6 6 30 36 55 66
51 61 50 61 153 185 99 120 111 145 111 225 0 53 -5 74 -27 111 -32 55 -49 71
-102 97 -50 25 -99 31 -148 21z"/>
</g>
</svg>
